# xmcd
#
# Track frame offsets:
#	150
#	13200
#	26785
#	38085
#	53060
#	64117
#	77132
#	89180
#	103287
#	113932
#	125575
#	142907
#	156557
#	165912
#	177415
#	189580
#	203047
#	213715
#	226535
#	237610
#	250065
#	265765
#
# Disc length: 3787
#
# Revision: 5
# Processed by: cddbd v1.5.1PL0 Copyright (c) Steve Scherf et al.
# Submitted via: ExactAudioCopy v0.90b4
# Normalized: r4:TDELIM( - ),TSWAP
#
DISCID=3e0ec916
DTITLE=Time Life Music - Contemporary Country - The Early 70's
DYEAR=1900
DGENRE=Country
TTITLE0=Merle Haggard - The Fightin' Side Of Me
TTITLE1=Loretta Lynn - Coal Miner's Daughter
TTITLE2=Freddie Hart - Easy Loving
TTITLE3=Don Gibson - Woman (Sensuous Woman)
TTITLE4=Conway Twitty - Hello Darlin'
TTITLE5=Jerry Lee Lewis - Would You Take Another Chance On Me
TTITLE6=Tammy Wynette - He Loves Me All The Way
TTITLE7=George Jones - Loving You Could Never Be Better
TTITLE8=Sonny James - Empty Arms
TTITLE9=Sammi Smith - Help Me Make It Through The Night
TTITLE10=Ray Price - For The Good Times
TTITLE11=Dolly Parton - Joshua
TTITLE12=Charley Pride - Kiss An Angel Good Mornin'
TTITLE13=Donna Fargo - The Happiest Girl In The Whole U.S.A.
TTITLE14=Buck Owens - Made In Japan
TTITLE15=Charlie Rich - Behind Closed Doors
TTITLE16=Jerry Reed - When Your're Hot, You're Hot
TTITLE17=Lynn Anderson - Rose Garden
TTITLE18=Conway Twitty And Loretta Lynn - Lead Me On
TTITLE19=Tom T. Hall - The Year That Clayton Delaney Died
TTITLE20=Kris Kristofferson - Why Me
TTITLE21=Johnny Cash - Sunday Morning Coming Down
EXTD=
EXTT0=
EXTT1=
EXTT2=
EXTT3=
EXTT4=
EXTT5=
EXTT6=
EXTT7=
EXTT8=
EXTT9=
EXTT10=
EXTT11=
EXTT12=
EXTT13=
EXTT14=
EXTT15=
EXTT16=
EXTT17=
EXTT18=
EXTT19=
EXTT20=
EXTT21=
PLAYORDER=
